# xmcd
#
# Track frame offsets:
#	150
#	14469
#	34478
#	48179
#	62659
#	88997
#	107867
#	128941
#	146685
#	161377
#
# Disc length: 2400 seconds
#
# Revision: 3
# Processed by: cddbd v1.5.2PL0 Copyright (c) Steve Scherf et al.
# Submitted via: audiograbber 1.83.01
#
DISCID=8b095e0a
DTITLE=Slaid Cleaves - Broke Down
DYEAR=2000
DGENRE=Country
TTITLE0=Broke Down
TTITLE1=One Good Year
TTITLE2=Horseshoe Lounge
TTITLE3=Cold and Lonely
TTITLE4=Breakfast in Hell
TTITLE5=Bring It On
TTITLE6=Lydia
TTITLE7=This Morning I Am Born Again
TTITLE8=Key Chain
TTITLE9=I Feel the Blues Moving In
EXTD=YEAR: 2000
EXTT0=
EXTT1=
EXTT2=
EXTT3=
EXTT4=
EXTT5=
EXTT6=
EXTT7=
EXTT8=
EXTT9=
PLAYORDER=
